<?xml version="1.0" encoding="utf-8"?>
<!-- Generator: Adobe Illustrator 16.0.0, SVG Export Plug-In . SVG Version: 6.00 Build 0)  -->
<!DOCTYPE svg PUBLIC "-//W3C//DTD SVG 1.1//EN" "http://www.w3.org/Graphics/SVG/1.1/DTD/svg11.dtd">
<svg version="1.1" id="Laag_1" xmlns="http://www.w3.org/2000/svg" xmlns:xlink="http://www.w3.org/1999/xlink" x="0px" y="0px"
	 width="423.605px" height="127.814px" viewBox="0 0 423.605 127.814" enable-background="new 0 0 423.605 127.814"
	 xml:space="preserve">
<polygon stroke="#575756" stroke-miterlimit="10" points="17.384,97.93 0.5,88.182 0.5,68.686 17.384,58.938 34.268,68.686 
	34.268,88.182 "/>
<polygon stroke="#575756" stroke-miterlimit="10" points="34.198,68.726 17.314,58.979 17.314,39.483 34.198,29.735 51.082,39.483 
	51.082,58.979 "/>
<polygon stroke="#575756" stroke-miterlimit="10" points="84.799,97.97 67.915,88.222 67.915,68.727 84.799,58.979 101.683,68.727 
	101.683,88.222 "/>
<polygon stroke="#575756" stroke-miterlimit="10" points="101.913,68.852 85.029,59.104 85.029,39.609 101.913,29.861 
	118.797,39.608 118.796,59.104 "/>
<polygon stroke="#575756" stroke-miterlimit="10" points="51.082,97.97 34.198,88.222 34.198,68.727 51.082,58.979 67.965,68.726 
	67.965,88.222 "/>
<polygon stroke="#575756" stroke-miterlimit="10" points="68.061,68.671 51.177,58.923 51.177,39.428 68.061,29.68 84.945,39.428 
	84.944,58.923 "/>
<polygon stroke="#575756" stroke-miterlimit="10" points="101.683,127.237 84.799,117.489 84.799,97.993 101.683,88.246 
	118.566,97.993 118.566,117.489 "/>
<polygon stroke="#575756" stroke-miterlimit="10" points="34.268,127.236 17.384,117.489 17.384,97.993 34.268,88.245 
	51.151,97.993 51.151,117.489 "/>
<polygon stroke="#575756" stroke-miterlimit="10" points="203.327,29.885 220.211,39.633 220.211,59.129 203.327,68.877 
	186.443,59.129 186.443,39.633 "/>
<polygon stroke="#575756" stroke-miterlimit="10" points="186.512,59.089 203.396,68.837 203.396,88.332 186.513,98.08 
	169.629,88.332 169.629,68.837 "/>
<polygon stroke="#575756" stroke-miterlimit="10" points="135.912,29.845 152.795,39.593 152.795,59.089 135.912,68.837 
	119.027,59.089 119.028,39.593 "/>
<polygon stroke="#575756" stroke-miterlimit="10" points="118.798,58.963 135.682,68.711 135.682,88.206 118.798,97.954 
	101.914,88.206 101.914,68.711 "/>
<polygon stroke="#575756" stroke-miterlimit="10" points="169.629,29.845 186.512,39.594 186.512,59.089 169.629,68.837 
	152.745,59.089 152.745,39.593 "/>
<polygon stroke="#575756" stroke-miterlimit="10" points="152.649,59.144 169.534,68.892 169.533,88.388 152.65,98.136 
	135.766,88.388 135.766,68.892 "/>
<polygon stroke="#575756" stroke-miterlimit="10" points="119.027,0.578 135.912,10.326 135.912,29.822 119.028,39.569 
	102.144,29.822 102.144,10.326 "/>
<polygon stroke="#575756" stroke-miterlimit="10" points="186.443,0.579 203.327,10.326 203.327,29.822 186.443,39.57 
	169.559,29.822 169.559,10.326 "/>
<polygon stroke="#575756" stroke-miterlimit="10" points="220.279,97.93 203.396,88.182 203.396,68.686 220.279,58.938 
	237.163,68.686 237.163,88.182 "/>
<polygon stroke="#575756" stroke-miterlimit="10" points="237.094,68.726 220.209,58.979 220.209,39.483 237.094,29.735 
	253.978,39.483 253.977,58.979 "/>
<polygon stroke="#575756" stroke-miterlimit="10" points="287.694,97.97 270.811,88.222 270.811,68.727 287.694,58.979 
	304.578,68.727 304.578,88.222 "/>
<polygon stroke="#575756" stroke-miterlimit="10" points="304.809,68.852 287.925,59.104 287.925,39.609 304.809,29.861 
	321.692,39.608 321.691,59.104 "/>
<polygon stroke="#575756" stroke-miterlimit="10" points="253.977,97.97 237.094,88.222 237.094,68.727 253.977,58.979 
	270.861,68.726 270.861,88.222 "/>
<polygon stroke="#575756" stroke-miterlimit="10" points="270.957,68.671 254.072,58.923 254.072,39.428 270.956,29.68 
	287.84,39.428 287.84,58.923 "/>
<polygon stroke="#575756" stroke-miterlimit="10" points="304.578,127.238 287.694,117.49 287.694,97.993 304.578,88.246 
	321.462,97.993 321.462,117.49 "/>
<polygon stroke="#575756" stroke-miterlimit="10" points="203.396,127.236 186.512,117.49 186.512,97.994 203.396,88.246 
	220.279,97.994 220.279,117.49 "/>
<polygon stroke="#575756" stroke-miterlimit="10" points="406.222,29.885 423.106,39.633 423.106,59.129 406.223,68.877 
	389.339,59.129 389.339,39.633 "/>
<polygon stroke="#575756" stroke-miterlimit="10" points="389.407,59.089 406.292,68.837 406.292,88.332 389.408,98.08 
	372.524,88.332 372.524,68.837 "/>
<polygon stroke="#575756" stroke-miterlimit="10" points="338.808,29.845 355.69,39.593 355.69,59.089 338.808,68.837 
	321.923,59.089 321.924,39.593 "/>
<polygon stroke="#575756" stroke-miterlimit="10" points="321.693,58.963 338.577,68.711 338.577,88.206 321.693,97.954 
	304.809,88.206 304.81,68.711 "/>
<polygon stroke="#575756" stroke-miterlimit="10" points="372.524,29.845 389.407,39.594 389.407,59.089 372.524,68.837 
	355.64,59.089 355.641,39.593 "/>
<polygon stroke="#575756" stroke-miterlimit="10" points="355.544,59.144 372.43,68.892 372.429,88.388 355.546,98.136 
	338.661,88.388 338.661,68.892 "/>
<polygon stroke="#575756" stroke-miterlimit="10" points="321.923,0.578 338.808,10.326 338.808,29.822 321.924,39.569 
	305.039,29.822 305.039,10.326 "/>
<polygon stroke="#575756" stroke-miterlimit="10" points="389.339,0.579 406.222,10.326 406.222,29.822 389.339,39.57 
	372.454,29.822 372.454,10.326 "/>
<polygon stroke="#575756" stroke-miterlimit="10" points="338.577,127.237 321.693,117.489 321.693,97.992 338.577,88.245 
	355.461,97.992 355.461,117.489 "/>
</svg>
