<?xml version="1.0" encoding="utf-8"?>
<!-- Generator: Adobe Illustrator 16.0.0, SVG Export Plug-In . SVG Version: 6.00 Build 0)  -->
<!DOCTYPE svg PUBLIC "-//W3C//DTD SVG 1.1//EN" "http://www.w3.org/Graphics/SVG/1.1/DTD/svg11.dtd">
<svg version="1.1" id="Laag_1" xmlns="http://www.w3.org/2000/svg" xmlns:xlink="http://www.w3.org/1999/xlink" x="0px" y="0px"
	 width="595.28px" height="841.89px" viewBox="0 0 595.28 841.89" enable-background="new 0 0 595.28 841.89" xml:space="preserve">
<rect x="186.044" y="17.982" transform="matrix(1 -0.0047 0.0047 1 -0.1324 1.7086)" fill="#FFFFFF" stroke="#000000" stroke-miterlimit="10" width="353.513" height="22"/>
<rect x="291.351" y="178.492" transform="matrix(0.1035 -0.9946 0.9946 0.1035 272.7989 681.6577)" fill="#FFFFFF" stroke="#000000" stroke-miterlimit="10" width="446.404" height="22"/>
<rect x="-179.209" y="236.27" transform="matrix(0.8329 -0.5535 0.5535 0.8329 -128.9656 67.4616)" fill="#FFFFFF" stroke="#000000" stroke-miterlimit="10" width="452.855" height="21.999"/>
<path fill="#FFFFFF" stroke="#000000" stroke-miterlimit="10" d="M152.301,355.648"/>
<path fill="#FFFFFF" stroke="#000000" stroke-miterlimit="10" d="M185.642,355.89L639.914,35.121l-12.69-17.972L149.212,354.683"/>
<path fill="#FFFFFF" stroke="#000000" stroke-miterlimit="10" d="M128.294,369.453L-79.79,516.385l12.69,17.971L167.557,368.66"/>
<path fill="#FFFFFF" stroke="#000000" stroke-miterlimit="10" d="M163.762,369.644"/>
<path fill="#FFFFFF" stroke="#000000" stroke-miterlimit="10" d="M155.787,351.465l-285.599-38.652l-2.95,21.801l261.374,35.375
	c0.459-1.579,1.611-2.931,3.388-3.31C136.703,365.678,154.102,352.381,155.787,351.465z"/>
<path fill="#FFFFFF" stroke="#000000" stroke-miterlimit="10" d="M167.5,368.667c-0.608,0.03,556.932,82.026,556.932,82.026
	l2.95-21.803l-541.713-73.314"/>
<rect x="-127.565" y="406.154" transform="matrix(0.4232 0.906 -0.906 0.4232 588.4076 -89.9473)" fill="#FFFFFF" stroke="#000000" stroke-miterlimit="10" width="984.824" height="21.999"/>
<rect x="-109.058" y="455.318" transform="matrix(0.994 -0.1094 0.1094 0.994 -50.2016 17.6985)" fill="#FFFFFF" stroke="#000000" stroke-miterlimit="10" width="490.476" height="22"/>
<rect x="51.857" y="651.686" transform="matrix(0.7454 0.6666 -0.6666 0.7454 529.6662 -61.3708)" fill="#FFFFFF" stroke="#000000" stroke-miterlimit="10" width="586.629" height="21.999"/>
<rect x="421.024" y="514.742" transform="matrix(0.7381 -0.6747 0.6747 0.7381 -206.9207 518.4584)" fill="#FFFFFF" stroke="#000000" stroke-miterlimit="10" width="286.571" height="21.999"/>
<rect x="119.211" y="700.815" transform="matrix(1 -0.0047 0.0047 1 -3.3497 1.2324)" fill="#FFFFFF" stroke="#000000" stroke-miterlimit="10" width="281.571" height="22"/>
<rect x="-82.182" y="656.339" transform="matrix(0.0211 -0.9998 0.9998 0.0211 -551.0408 771.89)" fill="#FFFFFF" stroke="#000000" stroke-miterlimit="10" width="401.667" height="21.999"/>
<rect x="-174.07" y="651.686" transform="matrix(0.6417 0.7669 -0.7669 0.6417 509.1951 235.3596)" fill="#FFFFFF" stroke="#000000" stroke-miterlimit="10" width="353.512" height="21.999"/>
<rect x="130.984" y="347.007" transform="matrix(-0.1399 0.9902 -0.9902 -0.1399 518.4504 271.0345)" fill="#FFFFFF" width="21.052" height="27.367"/>
<rect x="139.232" y="344.922" transform="matrix(0.5828 0.8126 -0.8126 0.5828 361.0177 32.1352)" fill="#FFFFFF" width="19.961" height="45.475"/>
<rect x="279.989" y="246.141" transform="matrix(0.57 0.8216 -0.8216 0.57 345.7237 -122.8873)" fill="#FFFFFF" width="20.571" height="45.474"/>
<rect x="119.207" y="444.271" transform="matrix(0.1115 0.9938 -0.9938 0.1115 579.1517 286.2556)" fill="#FFFFFF" width="20.571" height="45.475"/>
<rect x="123.782" y="474.41" transform="matrix(0.57 0.8216 -0.8216 0.57 454.8497 103.4954)" fill="#FFFFFF" width="9.516" height="23.848"/>
<rect x="122.015" y="689.666" transform="matrix(-6.752451e-004 1 -1 -6.752451e-004 844.9919 580.3832)" fill="#FFFFFF" width="20.971" height="45.474"/>
<rect x="105.682" y="768.243" transform="matrix(0.9997 0.0229 -0.0229 0.9997 18.1678 -2.4492)" fill="#FFFFFF" width="20.4" height="45.474"/>
<rect x="382.427" y="682.549" transform="matrix(-0.6661 0.7459 -0.7459 -0.6661 1180.1394 882.2631)" fill="#FFFFFF" width="20.326" height="45.474"/>
<rect x="540.196" y="818.43" transform="matrix(-7.054050e-004 1 -1 -7.054050e-004 1383.9473 285.7601)" fill="#FFFFFF" width="17.997" height="31.872"/>
<rect x="451.871" y="599.557" transform="matrix(-0.9073 0.4205 -0.4205 -0.9073 1141.9658 992.8037)" fill="#FFFFFF" width="19.328" height="45.474"/>
<rect x="366.657" y="420.424" transform="matrix(-0.9042 0.4271 -0.4271 -0.9042 906.924 682.885)" fill="#FFFFFF" width="20.428" height="45.473"/>
<rect x="512.982" y="79.154" transform="matrix(0.995 0.0994 -0.0994 0.995 12.9385 -51.5184)" fill="#FFFFFF" width="20.97" height="49.856"/>
<rect x="483.432" y="365.939" transform="matrix(0.995 0.1003 -0.1003 0.995 41.4593 -47.5637)" fill="#FFFFFF" width="20.97" height="45.474"/>
<rect x="506.175" y="5.558" transform="matrix(-6.984909e-004 1 -1 -6.984909e-004 545.3155 -488.3458)" fill="#FFFFFF" width="20.971" height="45.474"/>
<rect x="191.812" y="6.982" transform="matrix(0.0029 1 -1 0.0029 231.3865 -172.6152)" fill="#FFFFFF" width="20.876" height="45.473"/>
<rect x="202.259" y="114.608" transform="matrix(0.551 0.8345 -0.8345 0.551 210.1333 -115.8685)" fill="#FFFFFF" width="20.971" height="45.474"/>
</svg>
