<?xml version="1.0" encoding="utf-8"?>
<!-- Generator: Adobe Illustrator 16.0.0, SVG Export Plug-In . SVG Version: 6.00 Build 0)  -->
<!DOCTYPE svg PUBLIC "-//W3C//DTD SVG 1.1//EN" "http://www.w3.org/Graphics/SVG/1.1/DTD/svg11.dtd">
<svg version="1.1" id="Laag_1" xmlns="http://www.w3.org/2000/svg" xmlns:xlink="http://www.w3.org/1999/xlink" x="0px" y="0px"
	 width="595.28px" height="1225px" viewBox="0 0 595.28 1225" enable-background="new 0 0 595.28 1225" xml:space="preserve">
<polygon opacity="0.3" fill="#FFFFFF" stroke="#000000" stroke-miterlimit="10" points="413,66.968 499.5,93.5 508.5,169.863 "/>
<polygon opacity="0.3" fill="#FFFFFF" stroke="#000000" stroke-miterlimit="10" points="519,95.5 524.5,182 626.5,271.5 "/>
<polygon opacity="0.3" fill="#FFFFFF" stroke="#000000" stroke-miterlimit="10" points="534,87.5 601.5,29 604,195.512 "/>
<polygon opacity="0.3" fill="#FFFFFF" stroke="#000000" stroke-miterlimit="10" points="515,74 599,4.5 457,58.622 "/>
<polygon opacity="0.3" fill="#FFFFFF" stroke="#000000" stroke-miterlimit="10" points="434.5,53.5 569,-5.5 329,-5.5 "/>
<polygon opacity="0.3" fill="#FFFFFF" stroke="#000000" stroke-miterlimit="10" points="395.5,50.276 300.5,-8.449 240.5,116 "/>
<polygon opacity="0.3" fill="#FFFFFF" stroke="#000000" stroke-miterlimit="10" points="392,74 464.5,151.067 262.5,123 "/>
<polygon opacity="0.3" fill="#FFFFFF" stroke="#000000" stroke-miterlimit="10" points="575.5,253 480.5,172.847 262.5,141.5 "/>
<polygon opacity="0.3" fill="#FFFFFF" stroke="#000000" stroke-miterlimit="10" points="121,101 272.5,-8.449 217,116 "/>
<polygon opacity="0.3" fill="#FFFFFF" stroke="#000000" stroke-miterlimit="10" points="96,95.5 240.5,-8.449 96,-8.449 "/>
<polygon opacity="0.3" fill="#FFFFFF" stroke="#000000" stroke-miterlimit="10" points="72,87.5 72,-8.449 8,-8.449 "/>
<polygon opacity="0.3" fill="#FFFFFF" stroke="#000000" stroke-miterlimit="10" points="234.023,152.682 610,287 502.5,324.5 "/>
<polygon opacity="0.3" fill="#FFFFFF" stroke="#000000" stroke-miterlimit="10" points="68.923,114.192 -16.5,173.5 -11,4.5 "/>
<polygon opacity="0.3" fill="#FFFFFF" stroke="#000000" stroke-miterlimit="10" points="96,121 -14.5,196.379 208.5,136.5 "/>
<polygon opacity="0.3" fill="#FFFFFF" stroke="#000000" stroke-miterlimit="10" points="196.75,158.689 -8,214.5 63.5,271.5 "/>
<polygon opacity="0.3" fill="#FFFFFF" stroke="#000000" stroke-miterlimit="10" points="219.5,167.5 323.5,237.784 86,284 "/>
<polygon opacity="0.3" fill="#FFFFFF" stroke="#000000" stroke-miterlimit="10" points="344,253 474,335 106,301.5 "/>
<polygon opacity="0.3" fill="#FFFFFF" stroke="#000000" stroke-miterlimit="10" points="519,340.5 610,308.5 610,442.5 "/>
<polygon opacity="0.3" fill="#FFFFFF" stroke="#000000" stroke-miterlimit="10" points="501.303,361.649 601,465.5 488.5,453.5 "/>
<polygon opacity="0.3" fill="#FFFFFF" stroke="#000000" stroke-miterlimit="10" points="485,356 470.5,451.5 259,335 "/>
<polygon opacity="0.3" fill="#FFFFFF" stroke="#000000" stroke-miterlimit="10" points="222.5,332 223.163,332.386 460.75,471 
	247.5,488.5 "/>
<polygon opacity="0.3" fill="#FFFFFF" stroke="#000000" stroke-miterlimit="10" points="-16.5,246 94.375,327.5 57.5,426.5 "/>
<polygon opacity="0.3" fill="#FFFFFF" stroke="#000000" stroke-miterlimit="10" points="119.5,332 200.5,332 222.5,488.5 "/>
<polygon opacity="0.3" fill="#FFFFFF" stroke="#000000" stroke-miterlimit="10" points="110.5,361.649 239.5,561 26.5,561 "/>
<polygon opacity="0.3" fill="#FFFFFF" stroke="#000000" stroke-miterlimit="10" points="251.968,512.72 254.5,539.5 303,614 
	377,498.5 "/>
<polygon opacity="0.3" fill="#FFFFFF" stroke="#000000" stroke-miterlimit="10" points="486,475 601.5,485 466,604 "/>
<polygon opacity="0.3" fill="#FFFFFF" stroke="#000000" stroke-miterlimit="10" points="405.5,498.5 460.75,493 443,616.5 "/>
<polygon opacity="0.3" fill="#FFFFFF" stroke="#000000" stroke-miterlimit="10" points="390,512 426,635 319,635 "/>
<polygon opacity="0.3" fill="#FFFFFF" stroke="#000000" stroke-miterlimit="10" points="402.5,683.5 519,592 519,692.5 "/>
<polygon opacity="0.3" fill="#FFFFFF" stroke="#000000" stroke-miterlimit="10" points="536.5,579 610,509 539.5,692.5 "/>
<polygon opacity="0.3" fill="#FFFFFF" stroke="#000000" stroke-miterlimit="10" points="402.5,654.5 256,654.5 319,722.5 "/>
<polygon opacity="0.3" fill="#FFFFFF" stroke="#000000" stroke-miterlimit="10" points="246,579.5 285,635 117.5,579.5 "/>
<polygon opacity="0.3" fill="#FFFFFF" stroke="#000000" stroke-miterlimit="10" points="46.5,451.5 -8,324.5 -11.5,592 "/>
<polygon opacity="0.3" fill="#FFFFFF" stroke="#000000" stroke-miterlimit="10" points="82.5,579.5 214.5,635 82.5,680 "/>
<polygon opacity="0.3" fill="#FFFFFF" stroke="#000000" stroke-miterlimit="10" points="59.5,579.5 17.5,579.5 -35.5,659 "/>
<polygon opacity="0.3" fill="#FFFFFF" stroke="#000000" stroke-miterlimit="10" points="59.5,604 -26.5,671.5 59.5,681.5 "/>
<polygon opacity="0.3" fill="#FFFFFF" stroke="#000000" stroke-miterlimit="10" points="230,649.5 82.5,700 305,733.5 "/>
<polygon opacity="0.3" fill="#FFFFFF" stroke="#000000" stroke-miterlimit="10" points="335,741.5 394,697 519,708.5 "/>
<polygon opacity="0.3" fill="#FFFFFF" stroke="#000000" stroke-miterlimit="10" points="540.5,722.5 335,761 335,826 "/>
<polygon opacity="0.3" fill="#FFFFFF" stroke="#000000" stroke-miterlimit="10" points="549.817,702.726 604,568 606.5,692.5 "/>
<polygon opacity="0.3" fill="#FFFFFF" stroke="#000000" stroke-miterlimit="10" points="577.522,722.5 367.5,830 626,826 "/>
<polygon opacity="0.3" fill="#FFFFFF" stroke="#000000" stroke-miterlimit="10" points="314.484,752 314.484,820.5 201.25,737 "/>
<polygon opacity="0.3" fill="#FFFFFF" stroke="#000000" stroke-miterlimit="10" points="-26.5,692.5 59.5,705.5 59.5,797 "/>
<polygon opacity="0.3" fill="#FFFFFF" stroke="#000000" stroke-miterlimit="10" points="82.5,719.25 181,733.5 82.5,797 "/>
<polygon opacity="0.3" fill="#FFFFFF" stroke="#000000" stroke-miterlimit="10" points="190,749.5 281.5,820.5 82.5,820.5 "/>
<polygon opacity="0.3" fill="#FFFFFF" stroke="#000000" stroke-miterlimit="10" points="59.5,822.5 -17.5,733.5 -22.5,888.5 "/>
<polygon opacity="0.3" fill="#FFFFFF" stroke="#000000" stroke-miterlimit="10" points="82.5,838 314.484,838 188,899.5 "/>
<polygon opacity="0.3" fill="#FFFFFF" stroke="#000000" stroke-miterlimit="10" points="335,846.75 335,930.25 463.5,846.75 "/>
<polygon opacity="0.3" fill="#FFFFFF" stroke="#000000" stroke-miterlimit="10" points="63,844 163.667,910 -26.5,913.333 "/>
<polygon opacity="0.3" fill="#FFFFFF" stroke="#000000" stroke-miterlimit="10" points="203.667,913.333 314.484,862 314.484,1034 
	"/>
<polygon opacity="0.3" fill="#FFFFFF" stroke="#000000" stroke-miterlimit="10" points="496.75,846.75 335,956 335,1036 "/>
<polygon opacity="0.3" fill="#FFFFFF" stroke="#000000" stroke-miterlimit="10" points="526.333,846.75 451,941.375 626,941.375 "/>
<polygon opacity="0.3" fill="#FFFFFF" stroke="#000000" stroke-miterlimit="10" points="560.333,846.75 631,913.333 626,846.75 "/>
<polygon opacity="0.3" fill="#FFFFFF" stroke="#000000" stroke-miterlimit="10" points="434.291,962.334 335,1071.208 
	500.208,1105.667 "/>
<polygon opacity="0.3" fill="#FFFFFF" stroke="#000000" stroke-miterlimit="10" points="459.667,962.67 591.833,965.337 
	527.833,1112.003 "/>
<polygon opacity="0.3" fill="#FFFFFF" stroke="#000000" stroke-miterlimit="10" points="314.484,1064.67 182,926.67 46.333,930.25 
	"/>
<polygon opacity="0.3" fill="#FFFFFF" stroke="#000000" stroke-miterlimit="10" points="18.5,933.336 122.333,990.669 -31,1044.669 
	"/>
<polygon opacity="0.3" fill="#FFFFFF" stroke="#000000" stroke-miterlimit="10" points="142.333,1002.669 245.667,1052.669 
	-22.5,1064.67 "/>
<polygon opacity="0.3" fill="#FFFFFF" stroke="#000000" stroke-miterlimit="10" points="277,1068.003 158.333,1074.003 
	242.333,1162.003 "/>
<polygon opacity="0.3" fill="#FFFFFF" stroke="#000000" stroke-miterlimit="10" points="294.333,1078.003 378.333,1102.003 
	263.667,1171.336 "/>
<polygon opacity="0.3" fill="#FFFFFF" stroke="#000000" stroke-miterlimit="10" points="402.5,1109.336 510.333,1128.003 
	287.667,1182.003 "/>
<polygon opacity="0.3" fill="#FFFFFF" stroke="#000000" stroke-miterlimit="10" points="538.5,1128.671 606.5,985.336 
	599.667,1238.005 "/>
<polygon opacity="0.3" fill="#FFFFFF" stroke="#000000" stroke-miterlimit="10" points="521,1145.67 572.5,1238.005 
	415.875,1171.336 "/>
<polygon opacity="0.3" fill="#FFFFFF" stroke="#000000" stroke-miterlimit="10" points="390.333,1182.003 525.75,1243.34 
	327,1252.673 "/>
<polygon opacity="0.3" fill="#FFFFFF" stroke="#000000" stroke-miterlimit="10" points="356.333,1188.673 293,1252.673 
	147.667,1230.673 "/>
<polygon opacity="0.3" fill="#FFFFFF" stroke="#000000" stroke-miterlimit="10" points="233.667,1188.673 132.333,1078.003 
	122.333,1217.338 "/>
<polygon opacity="0.3" fill="#FFFFFF" stroke="#000000" stroke-miterlimit="10" points="105.667,1080.676 99,1220.673 
	27.667,1238.005 "/>
<polygon opacity="0.3" fill="#FFFFFF" stroke="#000000" stroke-miterlimit="10" points="77,1080.676 3.667,1234.009 -26.5,1086.676 
	"/>
</svg>
